<svg version="1.1" viewBox="0 0 512 512" xmlns="http://www.w3.org/2000/svg" xmlns:xlink="http://www.w3.org/1999/xlink" id="Layer_1" overflow="hidden"><circle cx="256" cy="256" r="256" fill="#83CF8F"/><ellipse cx="256" cy="421.6" rx="182.3" ry="14.4" fill="#75BD80"/><path d=" M 66 67.2 L 446 67.2 C 458.5 67.2 468.7 77.4 468.7 89.9 L 468.7 324 L 43.3 324 L 43.3 89.9 C 43.3 77.4 53.6 67.2 66 67.2 Z" fill="#666666"/><path d=" M 58.7 308.6 L 453.3 308.6 L 453.3 89.9 C 453.3 85.9 450 82.6 446 82.6 L 66 82.6 C 62 82.6 58.7 85.9 58.7 89.9 L 58.7 308.6 Z" fill="#6B7F9E"/><path d=" M 468.7 324 L 468.7 348.8 C 468.7 361.3 457.4 371.5 443.7 371.5 L 68.3 371.5 C 54.5 371.5 43.3 361.3 43.3 348.8 L 43.3 324 L 468.7 324 Z" fill="#FFFFFF"/><g><circle cx="256" cy="346.8" r="7.8" fill="#E4E7ED"/><path d=" M 305.1 407.3 L 341.1 418.8 L 170.8 418.8 L 200 407.3 L 200 371.6 L 305.1 371.6 Z" fill="#E4E7ED"/></g><path d=" M 305.1 407.3 L 200 371.6 L 305.1 371.6 Z" fill="#C6CBD6"/><g><path d=" M 200 407.3 L 305.1 407.3 L 341.1 418.8 L 341.1 423.8 L 256 423.8 L 170.8 423.8 L 170.8 418.8 Z" fill="#ECF0F1"/><path d=" M 58.9 82.7 L 102.7 82.7 L 102.7 105.8 C 102.7 115.7 92.9 123.8 80.8 123.8 L 80.8 123.8 C 68.8 123.8 58.9 115.7 58.9 105.8 C 58.9 105.8 58.9 82.7 58.9 82.7 Z" fill="#ECF0F1"/></g><path d=" M 102.7 82.7 L 146.5 82.7 L 146.5 105.8 C 146.5 115.7 136.7 123.8 124.6 123.8 L 124.6 123.8 C 112.6 123.8 102.7 115.7 102.7 105.8 L 102.7 82.7 Z" fill="#FF7069"/><path d=" M 146.5 82.7 L 190.3 82.7 L 190.3 105.8 C 190.3 115.7 180.5 123.8 168.4 123.8 L 168.4 123.8 C 156.4 123.8 146.5 115.7 146.5 105.8 L 146.5 82.7 L 146.5 82.7 Z" fill="#ECF0F1"/><path d=" M 190.3 82.7 L 234.1 82.7 L 234.1 105.8 C 234.1 115.7 224.3 123.8 212.2 123.8 L 212.2 123.8 C 200.2 123.8 190.3 115.7 190.3 105.8 L 190.3 82.7 L 190.3 82.7 Z" fill="#FF7069"/><path d=" M 234.1 82.7 L 277.9 82.7 L 277.9 105.8 C 277.9 115.7 268.1 123.8 256 123.8 L 256 123.8 C 244 123.8 234.1 115.7 234.1 105.8 L 234.1 82.7 Z" fill="#ECF0F1"/><path d=" M 277.9 82.7 L 321.7 82.7 L 321.7 105.8 C 321.7 115.7 311.9 123.8 299.8 123.8 L 299.8 123.8 C 287.8 123.8 277.9 115.7 277.9 105.8 L 277.9 82.7 L 277.9 82.7 Z" fill="#FF7069"/><path d=" M 321.7 82.7 L 365.5 82.7 L 365.5 105.8 C 365.5 115.7 355.7 123.8 343.6 123.8 L 343.6 123.8 C 331.6 123.8 321.7 115.7 321.7 105.8 L 321.7 82.7 Z" fill="#ECF0F1"/><path d=" M 365.5 82.7 L 409.3 82.7 L 409.3 105.8 C 409.3 115.7 399.5 123.8 387.4 123.8 L 387.4 123.8 C 375.4 123.8 365.5 115.7 365.5 105.8 L 365.5 82.7 Z" fill="#FF7069"/><path d=" M 409.3 82.7 L 453.1 82.7 L 453.1 105.8 C 453.1 115.7 443.3 123.8 431.2 123.8 L 431.2 123.8 C 419.2 123.8 409.3 115.7 409.3 105.8 L 409.3 82.7 L 409.3 82.7 Z" fill="#ECF0F1"/><path d=" M 317.1 204.4 C 296.7 204.4 276.4 204.4 256 204.4 C 235.6 204.4 215.3 204.4 194.9 204.4 L 194.8 204.4 C 191.4 204.4 189.2 207.2 190 210.7 C 192.7 222.3 195.3 233.9 198 245.6 C 200.7 257.2 203.3 268.8 206 280.4 C 206.8 283.8 209.5 286.7 212 286.7 C 226.6 286.7 241.4 286.7 256 286.7 C 270.6 286.7 285.4 286.7 300 286.7 C 302.5 286.7 305.2 283.9 306 280.4 C 308.7 268.8 311.3 257.2 314 245.6 C 316.7 234 319.3 222.4 322 210.7 C 322.7 207.2 320.5 204.4 317.1 204.4 Z M 218.9 274.5 C 218.8 274.5 218.7 274.5 218.6 274.5 C 217.4 274.5 216.3 273.3 216 271.7 C 214.4 262.7 212.8 253.7 211.3 244.7 C 209.7 235.7 208.1 226.7 206.6 217.7 C 206.3 216.2 207.3 214.9 208.8 214.9 L 208.9 214.9 C 209 214.9 209.2 214.9 209.2 214.9 C 210.6 214.9 212 216.1 212.2 217.7 C 213.6 226.7 215 235.7 216.4 244.7 C 217.8 253.7 219.2 262.7 220.6 271.7 C 220.8 273.3 220.1 274.5 218.9 274.5 Z M 234.1 273.7 C 234 273.7 233.9 273.7 233.8 273.7 C 232.6 273.7 231.6 272.5 231.4 270.9 C 230.4 261.9 229.5 252.9 228.5 243.9 C 227.5 234.9 226.6 225.9 225.6 216.9 C 225.5 215.4 226.5 214.1 227.9 214.1 C 228 214.1 228.1 214.1 228.2 214.1 C 229.6 214.1 231 215.3 231.1 216.9 C 231.9 225.9 232.7 234.9 233.5 243.9 C 234.3 252.9 235.1 261.9 235.8 270.9 C 236.1 272.5 235.2 273.7 234.1 273.7 Z M 307 218.1 C 305.6 225.8 304.2 233.6 302.7 241.3 C 304.4 245 305.3 249.1 305.3 253.4 C 305.3 269.6 292.2 282.8 275.9 282.8 C 265.4 282.8 256.2 277.3 251 269 L 251.1 270.9 C 251.1 272.4 250.2 273.7 249 273.7 C 248.9 273.7 248.8 273.7 248.7 273.7 C 247.5 273.7 246.6 272.5 246.5 270.9 C 246.2 261.9 245.8 252.9 245.4 243.9 C 245.1 234.9 244.7 225.9 244.3 216.9 C 244.2 215.4 245.3 214.1 246.8 214.1 C 246.9 214.1 247.1 214.1 247.1 214.1 C 248.5 214.1 249.8 215.3 249.8 216.9 C 249.9 224.3 250.1 231.5 250.3 238.9 C 253.3 233.7 257.7 229.6 263 227 C 263.1 223.6 263.2 220.3 263.3 216.9 C 263.4 215.4 264.5 214.1 266.1 214.1 C 266.2 214.1 266.4 214.1 266.5 214.1 C 267.9 214.1 269 215.3 269 216.9 C 268.9 219.6 268.7 222.3 268.7 225 C 271 224.4 273.4 224.1 276 224.1 C 278 224.1 279.9 224.3 281.8 224.7 C 282.1 222.1 282.3 219.5 282.6 216.9 C 282.7 215.4 284 214.1 285.5 214.1 C 285.6 214.1 285.8 214.1 285.8 214.1 C 287.2 214.1 288.3 215.3 288.1 216.9 C 287.8 220 287.4 223.1 287 226.3 C 291.5 228.2 295.5 231.1 298.6 234.8 C 299.5 229.2 300.4 223.7 301.3 218.1 C 301.6 216.6 302.9 215.3 304.4 215.3 L 304.5 215.4 C 304.6 215.4 304.8 215.4 304.8 215.4 C 306.3 215.4 307.3 216.6 307 218.1 Z" fill="#FFE356"/><path d=" M 193.4 208.9 L 320 208.5 L 312.4 222.4 L 306.3 222.4 L 307.1 218.1 C 307.4 216.6 306.4 215.3 305 215.3 C 304.9 215.3 304.7 215.3 304.7 215.3 C 303.3 215.3 301.9 216.5 301.6 218.1 L 300.9 222.4 L 287.8 222.4 L 288.4 216.9 C 288.5 215.4 287.5 214.1 286.1 214.1 C 286 214.1 285.8 214.1 285.8 214.1 C 284.4 214.1 283 215.3 282.9 216.9 C 282.8 218.8 282.6 220.5 282.4 222.4 L 269.3 222.4 L 269.6 216.9 C 269.7 215.4 268.6 214.1 267.1 214.1 C 267 214.1 266.8 214.1 266.7 214.1 C 265.3 214.1 264 215.3 263.9 216.9 L 263.8 222.4 L 250.7 222.4 L 250.6 216.9 C 250.6 215.4 249.4 214.1 247.9 214.1 C 247.8 214.1 247.6 214.1 247.6 214.1 C 246.2 214.1 245 215.3 245.1 216.9 L 245.3 222.4 L 232.2 222.4 L 231.7 216.9 C 231.6 215.4 230.3 214.1 228.8 214.1 C 228.7 214.1 228.5 214.1 228.4 214.1 C 227 214.1 225.9 215.3 226.1 216.9 L 226.7 222.4 L 213.6 222.4 L 212.8 217.7 C 212.6 216.2 211.2 214.9 209.8 214.9 C 209.7 214.9 209.5 214.9 209.5 214.9 C 208.1 214.9 207.1 216.1 207.3 217.7 L 208.1 222.4 L 200.3 222.4 L 194 208.9 L 193.4 208.9 Z" fill="#FCD34E"/><path d=" M 186.1 197.3 L 325.8 197.3 C 329.8 197.3 333 200.5 333 204.5 L 333 204.5 C 333 208.5 329.8 211.7 325.8 211.7 L 186.1 211.7 C 182.1 211.7 178.9 208.5 178.9 204.5 L 178.9 204.5 C 178.9 200.6 182.1 197.3 186.1 197.3 Z" fill="#FFE356"/><path d=" M 183.9 198.9 L 297.2 198.9 C 298 198.9 298.6 199.6 298.6 200.3 L 298.6 200.3 C 298.6 201.1 297.9 201.7 297.2 201.7 L 183.9 201.7 C 183.1 201.7 182.5 201 182.5 200.3 L 182.5 200.3 C 182.5 199.5 183.2 198.9 183.9 198.9 Z" fill="#FFFFFF"/><path d=" M 275.7 224.1 C 292.2 224.1 305.6 237.5 305.6 254 C 305.6 270.5 292.2 283.9 275.7 283.9 C 259.2 283.9 245.8 270.5 245.8 254 C 245.8 237.5 259.2 224.1 275.7 224.1 Z" fill="#FF7069"/><path d=" M 275.7 229 C 289.5 229 300.7 240.1 300.7 254 C 300.7 267.8 289.6 279 275.7 279 C 261.9 279 250.7 267.9 250.7 254 C 250.8 240.2 261.9 229 275.7 229 Z" fill="#FFFFFF"/><path d=" M 282.3 270.9 L 276 261.2 L 268.2 266 L 266.4 238.6 L 290.9 251.9 L 283.1 256.8 L 289.3 266.5 Z" fill="#596366"/><path d=" M 251.5 144.1 L 251.5 144.1 C 253 145.1 253.4 147.2 252.4 148.6 L 213.5 206.3 C 212.5 207.8 210.4 208.2 209 207.2 L 209 207.2 C 207.5 206.2 207.1 204.1 208.1 202.7 L 247 145 C 248 143.4 250 143 251.5 144.1 Z" fill="#FFFFFF"/><circle cx="249.2" cy="145.9" r="6.5" fill="#ECF0F1"/><path d=" M 260.5 144.1 L 260.5 144.1 C 259 145.1 258.6 147.2 259.6 148.6 L 298.5 206.3 C 299.5 207.8 301.6 208.2 303 207.2 L 303 207.2 C 304.5 206.2 304.9 204.1 303.9 202.7 L 265 144.9 C 264 143.4 261.9 143 260.5 144.1 Z" fill="#FFFFFF"/><circle cx="263.2" cy="145.9" r="6.5" fill="#ECF0F1"/><g><circle cx="263.2" cy="145.9" r="4.8" fill="#FFFFFF"/><circle cx="249.2" cy="145.9" r="4.8" fill="#FFFFFF"/></g><g><circle cx="210.8" cy="204.6" r="1.7" fill="#ECF0F1"/><circle cx="301.2" cy="204.6" r="1.7" fill="#ECF0F1"/></g><path d=" M 58.9 82.7 L 102.7 82.7 L 102.7 89.5 L 58.9 89.5 Z" fill="#E4E7ED"/><path d=" M 102.7 82.7 L 146.5 82.7 L 146.5 89.5 L 102.7 89.5 Z" fill="#F7635B"/><path d=" M 146.5 82.7 L 190.3 82.7 L 190.3 89.5 L 146.5 89.5 Z" fill="#E4E7ED"/><path d=" M 190.3 82.7 L 234.1 82.7 L 234.1 89.5 L 190.3 89.5 Z" fill="#F7635B"/><path d=" M 234.1 82.7 L 277.9 82.7 L 277.9 89.5 L 234.1 89.5 Z" fill="#E4E7ED"/><path d=" M 277.9 82.7 L 321.7 82.7 L 321.7 89.5 L 277.9 89.5 Z" fill="#F7635B"/><path d=" M 321.7 82.7 L 365.5 82.7 L 365.5 89.5 L 321.7 89.5 Z" fill="#E4E7ED"/><path d=" M 365.5 82.7 L 409.3 82.7 L 409.3 89.5 L 365.5 89.5 Z" fill="#F7635B"/><path d=" M 409.3 82.7 L 453.1 82.7 L 453.1 89.5 L 409.3 89.5 Z" fill="#E4E7ED"/><g></g><g></g><g></g><g></g><g></g><g></g><g></g><g></g><g></g><g></g><g></g><g></g><g></g><g></g><g></g></svg>